<?xml version="1.0" encoding="UTF-8" standalone="no"?>
<svg
   xmlns:dc="http://purl.org/dc/elements/1.1/"
   xmlns:cc="http://creativecommons.org/ns#"
   xmlns:rdf="http://www.w3.org/1999/02/22-rdf-syntax-ns#"
   xmlns:svg="http://www.w3.org/2000/svg"
   xmlns="http://www.w3.org/2000/svg"
   xmlns:sodipodi="http://sodipodi.sourceforge.net/DTD/sodipodi-0.dtd"
   xmlns:inkscape="http://www.inkscape.org/namespaces/inkscape"
   id="svg1620"
   version="1.1"
   viewBox="0 0 202.06781 306.46152"
   height="306.46152mm"
   width="202.06781mm"
   sodipodi:docname="poly.svg"
   inkscape:version="0.92.3 (2405546, 2018-03-11)">
  <sodipodi:namedview
     pagecolor="#ffffff"
     bordercolor="#666666"
     borderopacity="1"
     objecttolerance="10"
     gridtolerance="10"
     guidetolerance="10"
     inkscape:pageopacity="0"
     inkscape:pageshadow="2"
     inkscape:window-width="1920"
     inkscape:window-height="1025"
     id="namedview64"
     showgrid="false"
     inkscape:zoom="0.81680494"
     inkscape:cx="251.13589"
     inkscape:cy="823.99638"
     inkscape:window-x="0"
     inkscape:window-y="27"
     inkscape:window-maximized="1"
     inkscape:current-layer="svg1620" />
  <defs
     id="defs1614" />
  <metadata
     id="metadata1617">
    <rdf:RDF>
      <cc:Work
         rdf:about="">
        <dc:format>image/svg+xml</dc:format>
        <dc:type
           rdf:resource="http://purl.org/dc/dcmitype/StillImage" />
        <dc:title></dc:title>
      </cc:Work>
    </rdf:RDF>
  </metadata>
  <path
     style="opacity:1;fill:#f0a116;fill-opacity:1;stroke:none;stroke-width:0.55185258;stroke-miterlimit:4;stroke-dasharray:none;stroke-opacity:1"
     d="M 0 0 L 0 56.632812 L 705.73828 56.632812 L 705.73828 284.08203 L 0 284.08203 L 0 339.20117 L 0 638.76758 L 56.255859 638.76758 L 56.255859 339.20117 L 763.7207 339.20117 L 763.7207 284.08203 L 763.7207 56.632812 L 763.7207 0 L 0 0 z "
     transform="scale(0.26458333)"
     id="rect1336" />
  <rect
     style="opacity:1;fill:#335065;fill-opacity:1;stroke:none;stroke-width:0.18895061;stroke-miterlimit:4;stroke-dasharray:none;stroke-opacity:1"
     id="rect1338"
     width="139.48322"
     height="15.80659"
     x="-3.8409425e-08"
     y="14.983955" />
  <path
     style="opacity:1;fill:#b24236;fill-opacity:1;stroke:none;stroke-width:0.68191761;stroke-miterlimit:4;stroke-dasharray:none;stroke-opacity:1"
     d="M 527.17969 56.632812 L 527.17969 116.37305 L 0 116.37305 L 0 162.57227 L 585.14453 162.57227 L 585.14453 116.37305 L 585.14453 56.632812 L 527.17969 56.632812 z "
     transform="scale(0.26458333)"
     id="rect1340" />
  <path
     style="opacity:1;fill:#d23d41;fill-opacity:1;stroke:none;stroke-width:0.69509935;stroke-miterlimit:4;stroke-dasharray:none;stroke-opacity:1"
     d="M 585.14453 56.632812 L 585.14453 162.57227 L 642.62695 162.57227 L 642.62695 56.632812 L 585.14453 56.632812 z M 0 162.57422 L 0 220.75781 L 642.62695 220.75781 L 642.62695 162.57422 L 0 162.57422 z "
     transform="scale(0.26458333)"
     id="rect1342" />
  <path
     style="opacity:1;fill:#e86b3d;fill-opacity:1;stroke:none;stroke-width:0.67477578;stroke-miterlimit:4;stroke-dasharray:none;stroke-opacity:1"
     d="M 642.62695 56.632812 L 642.62695 220.75586 L 0 220.75586 L 0 284.08203 L 705.73828 284.08203 L 705.73828 220.75586 L 705.73828 56.632812 L 642.62695 56.632812 z "
     transform="scale(0.26458333)"
     id="rect1344" />
  <path
     style="opacity:1;fill:#b24236;fill-opacity:1;stroke:none;stroke-width:0.68995106;stroke-miterlimit:4;stroke-dasharray:none;stroke-opacity:1"
     d="M 56.255859 339.20117 L 56.255859 399.53711 L 56.255859 525.04297 L 117.71094 525.04297 L 117.71094 399.53711 L 591.32227 399.53711 L 591.32227 339.20117 L 56.255859 339.20117 z "
     transform="scale(0.26458333)"
     id="rect1358" />
  <rect
     style="opacity:1;fill:#7dd4de;fill-opacity:1;stroke:none;stroke-width:0.18027249;stroke-miterlimit:4;stroke-dasharray:none;stroke-opacity:1"
     id="rect1360"
     width="45.613724"
     height="15.963758"
     x="156.45398"
     y="89.747116" />
  <path
     style="opacity:1;fill:#7dd4de;fill-opacity:1;stroke:none;stroke-width:0.68985158;stroke-miterlimit:4;stroke-dasharray:none;stroke-opacity:1"
     d="M 117.71094 399.53711 L 117.71094 459.10547 L 117.71094 519.83594 L 175.14453 519.83594 L 175.14453 459.10547 L 532.27148 459.10547 L 532.27148 932.36523 L 412.83203 932.36523 L 412.83203 991.17188 L 591.32227 991.17188 L 591.32227 932.36523 L 591.32227 459.10547 L 591.32227 399.53711 L 117.71094 399.53711 z "
     transform="scale(0.26458333)"
     id="rect1364" />
  <rect
     style="opacity:1;fill:#e7a2a1;fill-opacity:1;stroke:none;stroke-width:0.18027249;stroke-miterlimit:4;stroke-dasharray:none;stroke-opacity:1"
     id="rect1366"
     width="45.613724"
     height="15.760724"
     x="156.45398"
     y="105.71096" />
  <path
     style="opacity:1;fill:#e7a2a1;fill-opacity:1;stroke:none;stroke-width:0.72223336;stroke-miterlimit:4;stroke-dasharray:none;stroke-opacity:1"
     d="M 56.255859 525.04297 L 56.255859 695.41016 L 0 695.41016 L 0 754.57617 L 56.255859 754.57617 L 117.71094 754.57617 L 117.71094 525.04297 L 56.255859 525.04297 z "
     transform="scale(0.26458333)"
     id="rect1370" />
  <rect
     style="opacity:1;fill:#b24236;fill-opacity:1;stroke:none;stroke-width:0.12607493;stroke-miterlimit:4;stroke-dasharray:none;stroke-opacity:1"
     id="rect1372"
     width="14.884451"
     height="14.986485"
     x="-3.8409425e-08"
     y="169.00763" />
  <rect
     style="opacity:1;fill:#7dd4de;fill-opacity:1;stroke:none;stroke-width:0.1815757;stroke-miterlimit:4;stroke-dasharray:none;stroke-opacity:1"
     id="rect1376"
     width="31.144312"
     height="15.67116"
     x="-3.8409425e-08"
     y="199.64833" />
  <rect
     style="opacity:1;fill:#f0a116;fill-opacity:1;stroke:none;stroke-width:0.20063601;stroke-miterlimit:4;stroke-dasharray:none;stroke-opacity:1"
     id="rect1378"
     width="15.196307"
     height="93.103142"
     x="31.14415"
     y="137.53999" />
  <rect
     style="opacity:1;fill:#f0a116;fill-opacity:1;stroke:none;stroke-width:0.18027249;stroke-miterlimit:4;stroke-dasharray:none;stroke-opacity:1"
     id="rect1380"
     width="31.144314"
     height="15.323677"
     x="-3.8409425e-08"
     y="215.31953" />
  <path
     style="opacity:1;fill:#e7a2a1;fill-opacity:1;stroke:none;stroke-width:0.38417691;stroke-miterlimit:4;stroke-dasharray:none;stroke-opacity:1"
     d="M 175.14648 459.10547 L 175.14648 584.81641 L 236.78711 584.81641 L 236.78711 520.00391 L 470.66016 520.00391 L 470.66016 932.36328 L 532.27148 932.36328 L 532.27148 520.00391 L 532.27148 459.10547 L 236.78711 459.10547 L 175.14648 459.10547 z "
     transform="scale(0.26458333)"
     id="rect1382" />
  <rect
     style="opacity:1;fill:#7dd4de;fill-opacity:1;stroke:none;stroke-width:0.22236788;stroke-miterlimit:4;stroke-dasharray:none;stroke-opacity:1"
     id="rect1386"
     width="16.309225"
     height="75.910347"
     x="46.340687"
     y="154.73283" />
  <path
     style="opacity:1;fill:#f0a116;fill-opacity:1;stroke:none;stroke-width:0.73611444;stroke-miterlimit:4;stroke-dasharray:none;stroke-opacity:1"
     d="M 236.78711 520.00391 L 236.78711 871.72266 L 295.56641 871.72266 L 295.56641 574.42969 L 470.66016 574.42969 L 470.66016 520.00391 L 295.56641 520.00391 L 236.78711 520.00391 z M 412.83203 574.43164 L 412.83203 932.36523 L 470.66016 932.36523 L 532.27148 932.36523 L 532.27148 870.91211 L 470.66016 870.91211 L 470.66016 574.43164 L 412.83203 574.43164 z "
     transform="scale(0.26458333)"
     id="rect1388" />
  <path
     style="opacity:1;fill:#b24236;fill-opacity:1;stroke:none;stroke-width:0.80300212;stroke-miterlimit:4;stroke-dasharray:none;stroke-opacity:1"
     d="M 591.32227 504.81836 L 591.32227 567.33594 L 591.32227 991.17188 L 412.83203 991.17188 L 412.83203 574.43164 L 354.83984 574.43164 L 354.83984 1048.5684 L 412.83203 1048.5684 L 412.83203 1048.5703 L 591.32227 1048.5703 L 591.32227 1105.9746 L 295.56641 1105.9746 L 295.56641 928.64844 L 295.56641 871.72266 L 0 871.72266 L 0 928.64844 L 55.988281 928.64844 L 55.988281 1158.2793 L 115.1543 1158.2793 L 115.1543 928.64844 L 235.41016 928.64844 L 235.41016 1105.9746 L 235.41016 1158.2793 L 591.32227 1158.2793 L 654.04688 1158.2793 L 654.04688 567.33594 L 763.7207 567.33594 L 763.7207 504.81836 L 591.32227 504.81836 z "
     transform="scale(0.26458333)"
     id="rect1394" />
  <path
     style="opacity:1;fill:#7dd4de;fill-opacity:1;stroke:none;stroke-width:0.69414121;stroke-miterlimit:4;stroke-dasharray:none;stroke-opacity:1"
     d="M 295.56641 574.43164 L 295.56641 1105.9746 L 354.83984 1105.9746 L 591.32227 1105.9746 L 591.32227 1048.5703 L 354.83984 1048.5703 L 354.83984 574.43164 L 295.56641 574.43164 z "
     transform="scale(0.26458333)"
     id="rect1396" />
  <rect
     style="opacity:1;fill:#f0a116;fill-opacity:1;stroke:none;stroke-width:0.13479806;stroke-miterlimit:4;stroke-dasharray:none;stroke-opacity:1"
     id="rect1412"
     width="45.613724"
     height="12.094799"
     x="156.45398"
     y="121.47168" />
  <rect
     style="opacity:1;fill:#f0a116;fill-opacity:1;stroke:none;stroke-width:0.05018957;stroke-miterlimit:4;stroke-dasharray:none;stroke-opacity:1"
     id="rect1422"
     width="14.813709"
     height="15.290821"
     x="-3.8409425e-08"
     y="245.7048" />
  <rect
     style="opacity:1;fill:#f0a116;fill-opacity:1;stroke:none;stroke-width:0.14758584;stroke-miterlimit:4;stroke-dasharray:none;stroke-opacity:1"
     id="rect1424"
     width="31.81772"
     height="15.290792"
     x="30.468025"
     y="245.7048" />
  <path
     style="opacity:1;fill:#e7a2a1;fill-opacity:1;stroke:none;stroke-width:0.48139432;stroke-miterlimit:4;stroke-dasharray:none;stroke-opacity:1"
     d="M 115.1543 986.43945 L 115.1543 1046.1113 L 175.35938 1046.1113 L 175.35938 1158.2793 L 235.41016 1158.2793 L 235.41016 1046.1113 L 235.41016 986.43945 L 115.1543 986.43945 z "
     transform="scale(0.26458333)"
     id="rect1428" />
  <rect
     style="opacity:1;fill:#7dd4de;fill-opacity:1;stroke:none;stroke-width:0.18027249;stroke-miterlimit:4;stroke-dasharray:none;stroke-opacity:1"
     id="rect1432"
     width="15.929027"
     height="29.677931"
     x="30.468025"
     y="276.78354" />
  <rect
     style="opacity:1;fill:#e7a2a1;fill-opacity:1;stroke:none;stroke-width:0.10673162;stroke-miterlimit:4;stroke-dasharray:none;stroke-opacity:1"
     id="rect1434"
     width="14.81371"
     height="15.937237"
     x="-3.8409425e-08"
     y="260.99551" />
  <path
     style="opacity:1;fill:#f0a116;fill-opacity:1;stroke:none;stroke-width:0.40622225;stroke-miterlimit:4;stroke-dasharray:none;stroke-opacity:1"
     d="M 654.04688 567.33594 L 654.04688 992.14062 L 708.27734 992.14062 L 763.7207 992.14062 L 763.7207 935.92578 L 708.27734 935.92578 L 708.27734 625.30469 L 763.7207 625.30469 L 763.7207 567.33594 L 708.27734 567.33594 L 654.04688 567.33594 z "
     transform="scale(0.26458333)"
     id="rect1436" />
  <rect
     style="opacity:1;fill:#335065;fill-opacity:1;stroke:none;stroke-width:0.18712951;stroke-miterlimit:4;stroke-dasharray:none;stroke-opacity:1"
     id="rect1440"
     width="14.669107"
     height="33.527344"
     x="187.39862"
     y="165.44516" />
  <rect
     style="opacity:1;fill:#b24236;fill-opacity:1;stroke:none;stroke-width:0.23973404;stroke-miterlimit:4;stroke-dasharray:none;stroke-opacity:1"
     id="rect1442"
     width="14.669107"
     height="15.073105"
     x="187.39862"
     y="198.97253" />
  <rect
     style="opacity:1;fill:#d23d41;fill-opacity:1;stroke:none;stroke-width:0.17910054;stroke-miterlimit:4;stroke-dasharray:none;stroke-opacity:1"
     id="rect1444"
     width="14.669106"
     height="17.095366"
     x="187.39862"
     y="214.04568" />
  <rect
     style="opacity:1;fill:#e86b3d;fill-opacity:1;stroke:none;stroke-width:0.19362681;stroke-miterlimit:4;stroke-dasharray:none;stroke-opacity:1"
     id="rect1446"
     width="14.669107"
     height="16.48938"
     x="187.39862"
     y="231.14104" />
  <rect
     style="opacity:1;fill:#335065;fill-opacity:1;stroke:none;stroke-width:0.11022953;stroke-miterlimit:4;stroke-dasharray:none;stroke-opacity:1"
     id="rect1450"
     width="29.0179"
     height="16.43499"
     x="173.04976"
     y="262.50406" />
</svg>
