<?xml version="1.0" encoding="UTF-8" standalone="no"?>
<svg
   xmlns:dc="http://purl.org/dc/elements/1.1/"
   xmlns:cc="http://creativecommons.org/ns#"
   xmlns:rdf="http://www.w3.org/1999/02/22-rdf-syntax-ns#"
   xmlns:svg="http://www.w3.org/2000/svg"
   xmlns="http://www.w3.org/2000/svg"
   xmlns:sodipodi="http://sodipodi.sourceforge.net/DTD/sodipodi-0.dtd"
   xmlns:inkscape="http://www.inkscape.org/namespaces/inkscape"
   id="svg1620"
   version="1.1"
   viewBox="0 0 202.06781 306.46152"
   height="306.46152mm"
   width="202.06781mm"
   sodipodi:docname="poly.svg"
   inkscape:version="0.92.3 (2405546, 2018-03-11)">
  <sodipodi:namedview
     pagecolor="#ffffff"
     bordercolor="#666666"
     borderopacity="1"
     objecttolerance="10"
     gridtolerance="10"
     guidetolerance="10"
     inkscape:pageopacity="0"
     inkscape:pageshadow="2"
     inkscape:window-width="1920"
     inkscape:window-height="1025"
     id="namedview64"
     showgrid="false"
     inkscape:zoom="0.48111892"
     inkscape:cx="791.31863"
     inkscape:cy="489.65004"
     inkscape:window-x="0"
     inkscape:window-y="27"
     inkscape:window-maximized="1"
     inkscape:current-layer="svg1620" />
  <defs
     id="defs1614" />
  <metadata
     id="metadata1617">
    <rdf:RDF>
      <cc:Work
         rdf:about="">
        <dc:format>image/svg+xml</dc:format>
        <dc:type
           rdf:resource="http://purl.org/dc/dcmitype/StillImage" />
        <dc:title />
      </cc:Work>
    </rdf:RDF>
  </metadata>
  <path
     style="opacity:1;stroke-opacity:1;fill-opacity:1;stroke:none;stroke-dasharray:none;stroke-miterlimit:4;stroke-width:0.0204428065157;fill:#f0a116"
     d="M0.0 0.0C0.0 0.0 0.0 14.9840979862 0.0 14.9840979862C0.0 14.9840979862 186.726584231 14.9840979862 186.726584231 14.9840979862C186.726584231 14.9840979862 186.726584231 75.1633694906 186.726584231 75.1633694906C186.726584231 75.1633694906 0.0 75.1633694906 0.0 75.1633694906C0.0 75.1633694906 0.0 89.7469750985 0.0 89.7469750985C0.0 89.7469750985 0.0 169.007253412 0.0 169.007253412C0.0 169.007253412 14.8843625062 169.007253412 14.8843625062 169.007253412C14.8843625062 169.007253412 14.8843625062 89.7469750985 14.8843625062 89.7469750985C14.8843625062 89.7469750985 202.067765996 89.7469750985 202.067765996 89.7469750985C202.067765996 89.7469750985 202.067765996 75.1633694906 202.067765996 75.1633694906C202.067765996 75.1633694906 202.067765996 14.9840979862 202.067765996 14.9840979862C202.067765996 14.9840979862 202.067765996 0.0 202.067765996 0.0C202.067765996 0.0 0.0 0.0 0.0 0.0C0.0 0.0 0.0 0.0 0.0 0.0"
     id="rect1336" />
  <path
     id="rect1338"
     d="M-3.8409425e-08 14.983955C-3.8409425e-08 14.983955 139.48322 14.983955 139.48322 14.983955C139.48322 14.983955 139.48322 30.790545 139.48322 30.790545C139.48322 30.790545 -3.8409425e-08 30.790545 -3.8409425e-08 30.790545C-3.8409425e-08 30.790545 -3.8409425e-08 14.983955 -3.8409425e-08 14.983955"
     style="opacity:1;stroke-opacity:1;fill-opacity:1;stroke:none;stroke-miterlimit:4;stroke-dasharray:none;stroke-width:0.0264547232255;fill:#335065" />
  <path
     style="opacity:1;stroke-opacity:1;fill-opacity:1;stroke:none;stroke-dasharray:none;stroke-miterlimit:4;stroke-width:0.0252609306654;fill:#b24236"
     d="M139.482957889 14.9840979862C139.482957889 14.9840979862 139.482957889 30.7903690913 139.482957889 30.7903690913C139.482957889 30.7903690913 0.0 30.7903690913 0.0 30.7903690913C0.0 30.7903690913 0.0 43.0139125623 0.0 43.0139125623C0.0 43.0139125623 154.819488279 43.0139125623 154.819488279 43.0139125623C154.819488279 43.0139125623 154.819488279 30.7903690913 154.819488279 30.7903690913C154.819488279 30.7903690913 154.819488279 14.9840979862 154.819488279 14.9840979862C154.819488279 14.9840979862 139.482957889 14.9840979862 139.482957889 14.9840979862C139.482957889 14.9840979862 139.482957889 14.9840979862 139.482957889 14.9840979862"
     id="rect1340" />
  <path
     style="opacity:1;stroke-opacity:1;fill-opacity:1;stroke:none;stroke-dasharray:none;stroke-miterlimit:4;stroke-width:0.0257492345532;fill:#d23d41"
     d="M154.819488279 14.9840979862C154.819488279 14.9840979862 154.819488279 43.0139125623 154.819488279 43.0139125623C154.819488279 43.0139125623 170.028378379 43.0139125623 170.028378379 43.0139125623C170.028378379 43.0139125623 170.028378379 14.9840979862 170.028378379 14.9840979862C170.028378379 14.9840979862 154.819488279 14.9840979862 154.819488279 14.9840979862C154.819488279 14.9840979862 154.819488279 14.9840979862 154.819488279 14.9840979862M0.0 43.0144284998C0.0 43.0144284998 0.0 58.4088364933 0.0 58.4088364933C0.0 58.4088364933 170.028378379 58.4088364933 170.028378379 58.4088364933C170.028378379 58.4088364933 170.028378379 43.0144284998 170.028378379 43.0144284998C170.028378379 43.0144284998 0.0 43.0144284998 0.0 43.0144284998C0.0 43.0144284998 0.0 43.0144284998 0.0 43.0144284998"
     id="rect1342" />
  <path
     style="opacity:1;stroke-opacity:1;fill-opacity:1;stroke:none;stroke-dasharray:none;stroke-miterlimit:4;stroke-width:0.0249963689796;fill:#e86b3d"
     d="M170.028378379 14.9840979862C170.028378379 14.9840979862 170.028378379 58.4083205558 170.028378379 58.4083205558C170.028378379 58.4083205558 0.0 58.4083205558 0.0 58.4083205558C0.0 58.4083205558 0.0 75.1633694906 0.0 75.1633694906C0.0 75.1633694906 186.726584231 75.1633694906 186.726584231 75.1633694906C186.726584231 75.1633694906 186.726584231 58.4083205558 186.726584231 58.4083205558C186.726584231 58.4083205558 186.726584231 14.9840979862 186.726584231 14.9840979862C186.726584231 14.9840979862 170.028378379 14.9840979862 170.028378379 14.9840979862C170.028378379 14.9840979862 170.028378379 14.9840979862 170.028378379 14.9840979862"
     id="rect1344" />
  <path
     style="opacity:1;stroke-opacity:1;fill-opacity:1;stroke:none;stroke-dasharray:none;stroke-miterlimit:4;stroke-width:0.0255585214893;fill:#b24236"
     d="M14.8843625062 89.7469750985C14.8843625062 89.7469750985 14.8843625062 105.710859022 14.8843625062 105.710859022C14.8843625062 105.710859022 14.8843625062 138.917617396 14.8843625062 138.917617396C14.8843625062 138.917617396 31.1443524826 138.917617396 31.1443524826 138.917617396C31.1443524826 138.917617396 31.1443524826 105.710859022 31.1443524826 105.710859022C31.1443524826 105.710859022 156.4540153 105.710859022 156.4540153 105.710859022C156.4540153 105.710859022 156.4540153 89.7469750985 156.4540153 89.7469750985C156.4540153 89.7469750985 14.8843625062 89.7469750985 14.8843625062 89.7469750985C14.8843625062 89.7469750985 14.8843625062 89.7469750985 14.8843625062 89.7469750985"
     id="rect1358" />
  <path
     id="rect1360"
     d="M156.45398 89.747116C156.45398 89.747116 202.0677 89.747116 202.0677 89.747116C202.0677 89.747116 202.0677 105.71087 202.0677 105.71087C202.0677 105.71087 156.45398 105.71087 156.45398 105.71087C156.45398 105.71087 156.45398 89.747116 156.45398 89.747116"
     style="opacity:1;stroke-opacity:1;fill-opacity:1;stroke:none;stroke-miterlimit:4;stroke-dasharray:none;stroke-width:0.0252397132812;fill:#7dd4de" />
  <path
     style="opacity:1;stroke-opacity:1;fill-opacity:1;stroke:none;stroke-dasharray:none;stroke-miterlimit:4;stroke-width:0.0255548363559;fill:#7dd4de"
     d="M31.1443524826 105.710859022C31.1443524826 105.710859022 31.1443524826 121.471654074 31.1443524826 121.471654074C31.1443524826 121.471654074 31.1443524826 137.539924059 31.1443524826 137.539924059C31.1443524826 137.539924059 46.3403229787 137.539924059 46.3403229787 137.539924059C46.3403229787 137.539924059 46.3403229787 121.471654074 46.3403229787 121.471654074C46.3403229787 121.471654074 140.830160642 121.471654074 140.830160642 121.471654074C140.830160642 121.471654074 140.830160642 246.68829733 140.830160642 246.68829733C140.830160642 246.68829733 109.228473228 246.68829733 109.228473228 246.68829733C109.228473228 246.68829733 109.228473228 262.247556613 109.228473228 262.247556613C109.228473228 262.247556613 156.4540153 262.247556613 156.4540153 262.247556613C156.4540153 262.247556613 156.4540153 246.68829733 156.4540153 246.68829733C156.4540153 246.68829733 156.4540153 121.471654074 156.4540153 121.471654074C156.4540153 121.471654074 156.4540153 105.710859022 156.4540153 105.710859022C156.4540153 105.710859022 31.1443524826 105.710859022 31.1443524826 105.710859022C31.1443524826 105.710859022 31.1443524826 105.710859022 31.1443524826 105.710859022"
     id="rect1364" />
  <path
     id="rect1366"
     d="M156.45398 105.71096C156.45398 105.71096 202.0677 105.71096 202.0677 105.71096C202.0677 105.71096 202.0677 121.47168 202.0677 121.47168C202.0677 121.47168 156.45398 121.47168 156.45398 121.47168C156.45398 121.47168 156.45398 105.71096 156.45398 105.71096"
     style="opacity:1;stroke-opacity:1;fill-opacity:1;stroke:none;stroke-miterlimit:4;stroke-dasharray:none;stroke-width:0.0252397132812;fill:#e7a2a1" />
  <path
     style="opacity:1;stroke-opacity:1;fill-opacity:1;stroke:none;stroke-dasharray:none;stroke-miterlimit:4;stroke-width:0.0267543858138;fill:#e7a2a1"
     d="M14.8843625062 138.917617396C14.8843625062 138.917617396 14.8843625062 183.993935849 14.8843625062 183.993935849C14.8843625062 183.993935849 0.0 183.993935849 0.0 183.993935849C0.0 183.993935849 0.0 199.648275797 0.0 199.648275797C0.0 199.648275797 14.8843625062 199.648275797 14.8843625062 199.648275797C14.8843625062 199.648275797 31.1443524826 199.648275797 31.1443524826 199.648275797C31.1443524826 199.648275797 31.1443524826 138.917617396 31.1443524826 138.917617396C31.1443524826 138.917617396 14.8843625062 138.917617396 14.8843625062 138.917617396C14.8843625062 138.917617396 14.8843625062 138.917617396 14.8843625062 138.917617396"
     id="rect1370" />
  <path
     id="rect1372"
     d="M-3.8409425e-08 169.00763C-3.8409425e-08 169.00763 14.884451 169.00763 14.884451 169.00763C14.884451 169.00763 14.884451 183.99411 14.884451 183.99411C14.884451 183.99411 -3.8409425e-08 183.99411 -3.8409425e-08 183.99411C-3.8409425e-08 183.99411 -3.8409425e-08 169.00763 -3.8409425e-08 169.00763"
     style="opacity:1;stroke-opacity:1;fill-opacity:1;stroke:none;stroke-miterlimit:4;stroke-dasharray:none;stroke-width:0.0176515839477;fill:#b24236" />
  <path
     id="rect1376"
     d="M-3.8409425e-08 199.64833C-3.8409425e-08 199.64833 31.144312 199.64833 31.144312 199.64833C31.144312 199.64833 31.144312 215.31949 31.144312 215.31949C31.144312 215.31949 -3.8409425e-08 215.31949 -3.8409425e-08 215.31949C-3.8409425e-08 215.31949 -3.8409425e-08 199.64833 -3.8409425e-08 199.64833"
     style="opacity:1;stroke-opacity:1;fill-opacity:1;stroke:none;stroke-miterlimit:4;stroke-dasharray:none;stroke-width:0.0254221733767;fill:#7dd4de" />
  <path
     id="rect1378"
     d="M31.14415 137.53999C31.14415 137.53999 46.340457 137.53999 46.340457 137.53999C46.340457 137.53999 46.340457 230.64314 46.340457 230.64314C46.340457 230.64314 31.14415 230.64314 31.14415 230.64314C31.14415 230.64314 31.14415 137.53999 31.14415 137.53999"
     style="opacity:1;stroke-opacity:1;fill-opacity:1;stroke:none;stroke-miterlimit:4;stroke-dasharray:none;stroke-width:0.0280907837033;fill:#f0a116" />
  <path
     id="rect1380"
     d="M-3.8409425e-08 215.31953C-3.8409425e-08 215.31953 31.144314 215.31953 31.144314 215.31953C31.144314 215.31953 31.144314 230.64321 31.144314 230.64321C31.144314 230.64321 -3.8409425e-08 230.64321 -3.8409425e-08 230.64321C-3.8409425e-08 230.64321 -3.8409425e-08 215.31953 -3.8409425e-08 215.31953"
     style="opacity:1;stroke-opacity:1;fill-opacity:1;stroke:none;stroke-miterlimit:4;stroke-dasharray:none;stroke-width:0.0252397132812;fill:#f0a116" />
  <path
     style="opacity:1;stroke-opacity:1;fill-opacity:1;stroke:none;stroke-dasharray:none;stroke-miterlimit:4;stroke-width:0.0142314352122;fill:#e7a2a1"
     d="M46.3408389162 121.471654074C46.3408389162 121.471654074 46.3408389162 154.732673196 46.3408389162 154.732673196C46.3408389162 154.732673196 62.6499220649 154.732673196 62.6499220649 154.732673196C62.6499220649 154.732673196 62.6499220649 137.584366121 62.6499220649 137.584366121C62.6499220649 137.584366121 124.528832431 137.584366121 124.528832431 137.584366121C124.528832431 137.584366121 124.528832431 246.687781392 124.528832431 246.687781392C124.528832431 246.687781392 140.830160642 246.687781392 140.830160642 246.687781392C140.830160642 246.687781392 140.830160642 137.584366121 140.830160642 137.584366121C140.830160642 137.584366121 140.830160642 121.471654074 140.830160642 121.471654074C140.830160642 121.471654074 62.6499220649 121.471654074 62.6499220649 121.471654074C62.6499220649 121.471654074 46.3408389162 121.471654074 46.3408389162 121.471654074C46.3408389162 121.471654074 46.3408389162 121.471654074 46.3408389162 121.471654074"
     id="rect1382" />
  <path
     id="rect1386"
     d="M46.340687 154.73283C46.340687 154.73283 62.649912 154.73283 62.649912 154.73283C62.649912 154.73283 62.649912 230.64318 62.649912 230.64318C62.649912 230.64318 46.340687 230.64318 46.340687 230.64318C46.340687 230.64318 46.340687 154.73283 46.340687 154.73283"
     style="opacity:1;stroke-opacity:1;fill-opacity:1;stroke:none;stroke-miterlimit:4;stroke-dasharray:none;stroke-width:0.0311334329227;fill:#7dd4de" />
  <path
     style="opacity:1;stroke-opacity:1;fill-opacity:1;stroke:none;stroke-dasharray:none;stroke-miterlimit:4;stroke-width:0.0272685960267;fill:#f0a116"
     d="M62.6499220649 137.584366121C62.6499220649 137.584366121 62.6499220649 230.643284219 62.6499220649 230.643284219C62.6499220649 230.643284219 78.2019449939 230.643284219 78.2019449939 230.643284219C78.2019449939 230.643284219 78.2019449939 151.984520231 78.2019449939 151.984520231C78.2019449939 151.984520231 124.528832431 151.984520231 124.528832431 151.984520231C124.528832431 151.984520231 124.528832431 137.584366121 124.528832431 137.584366121C124.528832431 137.584366121 78.2019449939 137.584366121 78.2019449939 137.584366121C78.2019449939 137.584366121 62.6499220649 137.584366121 62.6499220649 137.584366121C62.6499220649 137.584366121 62.6499220649 137.584366121 62.6499220649 137.584366121M109.228473228 151.985036169C109.228473228 151.985036169 109.228473228 246.68829733 109.228473228 246.68829733C109.228473228 246.68829733 124.528832431 246.68829733 124.528832431 246.68829733C124.528832431 246.68829733 140.830160642 246.68829733 140.830160642 246.68829733C140.830160642 246.68829733 140.830160642 230.428826201 140.830160642 230.428826201C140.830160642 230.428826201 124.528832431 230.428826201 124.528832431 230.428826201C124.528832431 230.428826201 124.528832431 151.985036169 124.528832431 151.985036169C124.528832431 151.985036169 109.228473228 151.985036169 109.228473228 151.985036169C109.228473228 151.985036169 109.228473228 151.985036169 109.228473228 151.985036169"
     id="rect1388" />
  <path
     style="opacity:1;stroke-opacity:1;fill-opacity:1;stroke:none;stroke-dasharray:none;stroke-miterlimit:4;stroke-width:0.0297463807651;fill:#b24236"
     d="M156.4540153 133.566522734C156.4540153 133.566522734 156.4540153 150.107632234 156.4540153 150.107632234C156.4540153 150.107632234 156.4540153 262.247556613 156.4540153 262.247556613C156.4540153 262.247556613 109.228473228 262.247556613 109.228473228 262.247556613C109.228473228 262.247556613 109.228473228 151.985036169 109.228473228 151.985036169C109.228473228 151.985036169 93.8847064839 151.985036169 93.8847064839 151.985036169C93.8847064839 151.985036169 93.8847064839 277.433719005 93.8847064839 277.433719005C93.8847064839 277.433719005 109.228473228 277.433719005 109.228473228 277.433719005C109.228473228 277.433719005 109.228473228 277.434221713 109.228473228 277.434221713C109.228473228 277.434221713 156.4540153 277.434221713 156.4540153 277.434221713C156.4540153 277.434221713 156.4540153 292.622442563 156.4540153 292.622442563C156.4540153 292.622442563 78.2019449939 292.622442563 78.2019449939 292.622442563C78.2019449939 292.622442563 78.2019449939 245.704896655 78.2019449939 245.704896655C78.2019449939 245.704896655 78.2019449939 230.643284219 78.2019449939 230.643284219C78.2019449939 230.643284219 0.0 230.643284219 0.0 230.643284219C0.0 230.643284219 0.0 245.704896655 0.0 245.704896655C0.0 245.704896655 14.813565828 245.704896655 14.813565828 245.704896655C14.813565828 245.704896655 14.813565828 306.461394264 14.813565828 306.461394264C14.813565828 306.461394264 30.4679081578 306.461394264 30.4679081578 306.461394264C30.4679081578 306.461394264 30.4679081578 245.704896655 30.4679081578 245.704896655C30.4679081578 245.704896655 62.2856040486 245.704896655 62.2856040486 245.704896655C62.2856040486 245.704896655 62.2856040486 292.622442563 62.2856040486 292.622442563C62.2856040486 292.622442563 62.2856040486 306.461394264 62.2856040486 306.461394264C62.2856040486 306.461394264 156.4540153 306.461394264 156.4540153 306.461394264C156.4540153 306.461394264 173.049901487 306.461394264 173.049901487 306.461394264C173.049901487 306.461394264 173.049901487 150.107632234 173.049901487 150.107632234C173.049901487 150.107632234 202.067765996 150.107632234 202.067765996 150.107632234C202.067765996 150.107632234 202.067765996 133.566522734 202.067765996 133.566522734C202.067765996 133.566522734 156.4540153 133.566522734 156.4540153 133.566522734C156.4540153 133.566522734 156.4540153 133.566522734 156.4540153 133.566522734"
     id="rect1394" />
  <path
     style="opacity:1;stroke-opacity:1;fill-opacity:1;stroke:none;stroke-dasharray:none;stroke-miterlimit:4;stroke-width:0.0257137412506;fill:#7dd4de"
     d="M78.2019449939 151.985036169C78.2019449939 151.985036169 78.2019449939 292.622442563 78.2019449939 292.622442563C78.2019449939 292.622442563 93.8847064839 292.622442563 93.8847064839 292.622442563C93.8847064839 292.622442563 156.4540153 292.622442563 156.4540153 292.622442563C156.4540153 292.622442563 156.4540153 277.434221713 156.4540153 277.434221713C156.4540153 277.434221713 93.8847064839 277.434221713 93.8847064839 277.434221713C93.8847064839 277.434221713 93.8847064839 151.985036169 93.8847064839 151.985036169C93.8847064839 151.985036169 78.2019449939 151.985036169 78.2019449939 151.985036169C78.2019449939 151.985036169 78.2019449939 151.985036169 78.2019449939 151.985036169"
     id="rect1396" />
  <path
     id="rect1412"
     d="M156.45398 121.47168C156.45398 121.47168 202.0677 121.47168 202.0677 121.47168C202.0677 121.47168 202.0677 133.56648 202.0677 133.56648C202.0677 133.56648 156.45398 133.56648 156.45398 133.56648C156.45398 133.56648 156.45398 121.47168 156.45398 121.47168"
     style="opacity:1;stroke-opacity:1;fill-opacity:1;stroke:none;stroke-miterlimit:4;stroke-dasharray:none;stroke-width:0.0188728987801;fill:#f0a116" />
  <path
     id="rect1422"
     d="M-3.8409425e-08 245.7048C-3.8409425e-08 245.7048 14.813709 245.7048 14.813709 245.7048C14.813709 245.7048 14.813709 260.99562 14.813709 260.99562C14.813709 260.99562 -3.8409425e-08 260.99562 -3.8409425e-08 260.99562C-3.8409425e-08 260.99562 -3.8409425e-08 245.7048 -3.8409425e-08 245.7048"
     style="opacity:1;stroke-opacity:1;fill-opacity:1;stroke:none;stroke-miterlimit:4;stroke-dasharray:none;stroke-width:0.00702697557913;fill:#f0a116" />
  <path
     id="rect1424"
     d="M30.468025 245.7048C30.468025 245.7048 62.285746 245.7048 62.285746 245.7048C62.285746 245.7048 62.285746 260.9956 62.285746 260.9956C62.285746 260.9956 30.468025 260.9956 30.468025 260.9956C30.468025 260.9956 30.468025 245.7048 30.468025 245.7048"
     style="opacity:1;stroke-opacity:1;fill-opacity:1;stroke:none;stroke-miterlimit:4;stroke-dasharray:none;stroke-width:0.0206632961847;fill:#f0a116" />
  <path
     style="opacity:1;stroke-opacity:1;fill-opacity:1;stroke:none;stroke-dasharray:none;stroke-miterlimit:4;stroke-width:0.0178327533442;fill:#e7a2a1"
     d="M30.4679081578 260.995434524C30.4679081578 260.995434524 30.4679081578 276.783611305 30.4679081578 276.783611305C30.4679081578 276.783611305 46.3971687071 276.783611305 46.3971687071 276.783611305C46.3971687071 276.783611305 46.3971687071 306.461394264 46.3971687071 306.461394264C46.3971687071 306.461394264 62.2856040486 306.461394264 62.2856040486 306.461394264C62.2856040486 306.461394264 62.2856040486 276.783611305 62.2856040486 276.783611305C62.2856040486 276.783611305 62.2856040486 260.995434524 62.2856040486 260.995434524C62.2856040486 260.995434524 30.4679081578 260.995434524 30.4679081578 260.995434524C30.4679081578 260.995434524 30.4679081578 260.995434524 30.4679081578 260.995434524"
     id="rect1428" />
  <path
     id="rect1432"
     d="M30.468025 276.78354C30.468025 276.78354 46.397052 276.78354 46.397052 276.78354C46.397052 276.78354 46.397052 306.46147 46.397052 306.46147C46.397052 306.46147 30.468025 306.46147 30.468025 306.46147C30.468025 306.46147 30.468025 276.78354 30.468025 276.78354"
     style="opacity:1;stroke-opacity:1;fill-opacity:1;stroke:none;stroke-miterlimit:4;stroke-dasharray:none;stroke-width:0.0252397132812;fill:#7dd4de" />
  <path
     id="rect1434"
     d="M-3.8409425e-08 260.99551C-3.8409425e-08 260.99551 14.81371 260.99551 14.81371 260.99551C14.81371 260.99551 14.81371 276.93275 14.81371 276.93275C14.81371 276.93275 -3.8409425e-08 276.93275 -3.8409425e-08 276.93275C-3.8409425e-08 276.93275 -3.8409425e-08 260.99551 -3.8409425e-08 260.99551"
     style="opacity:1;stroke-opacity:1;fill-opacity:1;stroke:none;stroke-miterlimit:4;stroke-dasharray:none;stroke-width:0.0149433519827;fill:#e7a2a1" />
  <path
     style="opacity:1;stroke-opacity:1;fill-opacity:1;stroke:none;stroke-dasharray:none;stroke-miterlimit:4;stroke-width:0.0150480819699;fill:#f0a116"
     d="M173.049901487 150.107632234C173.049901487 150.107632234 173.049901487 262.503869068 173.049901487 262.503869068C173.049901487 262.503869068 187.398377181 262.503869068 187.398377181 262.503869068C187.398377181 262.503869068 202.067765996 262.503869068 202.067765996 262.503869068C202.067765996 262.503869068 202.067765996 247.630359505 202.067765996 247.630359505C202.067765996 247.630359505 187.398377181 247.630359505 187.398377181 247.630359505C187.398377181 247.630359505 187.398377181 165.445197145 187.398377181 165.445197145C187.398377181 165.445197145 202.067765996 165.445197145 202.067765996 165.445197145C202.067765996 165.445197145 202.067765996 150.107632234 202.067765996 150.107632234C202.067765996 150.107632234 187.398377181 150.107632234 187.398377181 150.107632234C187.398377181 150.107632234 173.049901487 150.107632234 173.049901487 150.107632234C173.049901487 150.107632234 173.049901487 150.107632234 173.049901487 150.107632234"
     id="rect1436" />
  <path
     id="rect1440"
     d="M187.39862 165.44516C187.39862 165.44516 202.06773 165.44516 202.06773 165.44516C202.06773 165.44516 202.06773 198.9725 202.06773 198.9725C202.06773 198.9725 187.39862 198.9725 187.39862 198.9725C187.39862 198.9725 187.39862 165.44516 187.39862 165.44516"
     style="opacity:1;stroke-opacity:1;fill-opacity:1;stroke:none;stroke-miterlimit:4;stroke-dasharray:none;stroke-width:0.0261997587871;fill:#335065" />
  <path
     id="rect1442"
     d="M187.39862 198.97253C187.39862 198.97253 202.06773 198.97253 202.06773 198.97253C202.06773 198.97253 202.06773 214.04564 202.06773 214.04564C202.06773 214.04564 187.39862 214.04564 187.39862 214.04564C187.39862 214.04564 187.39862 198.97253 187.39862 198.97253"
     style="opacity:1;stroke-opacity:1;fill-opacity:1;stroke:none;stroke-miterlimit:4;stroke-dasharray:none;stroke-width:0.0335648484927;fill:#b24236" />
  <path
     id="rect1444"
     d="M187.39862 214.04568C187.39862 214.04568 202.06773 214.04568 202.06773 214.04568C202.06773 214.04568 202.06773 231.14105 202.06773 231.14105C202.06773 231.14105 187.39862 231.14105 187.39862 231.14105C187.39862 231.14105 187.39862 214.04568 187.39862 214.04568"
     style="opacity:1;stroke-opacity:1;fill-opacity:1;stroke:none;stroke-miterlimit:4;stroke-dasharray:none;stroke-width:0.0250756290347;fill:#d23d41" />
  <path
     id="rect1446"
     d="M187.39862 231.14104C187.39862 231.14104 202.06773 231.14104 202.06773 231.14104C202.06773 231.14104 202.06773 247.63042 202.06773 247.63042C202.06773 247.63042 187.39862 247.63042 187.39862 247.63042C187.39862 247.63042 187.39862 231.14104 187.39862 231.14104"
     style="opacity:1;stroke-opacity:1;fill-opacity:1;stroke:none;stroke-miterlimit:4;stroke-dasharray:none;stroke-width:0.0271094325397;fill:#e86b3d" />
  <path
     id="rect1450"
     d="M173.04976 262.50406C173.04976 262.50406 202.06766 262.50406 202.06766 262.50406C202.06766 262.50406 202.06766 278.93905 202.06766 278.93905C202.06766 278.93905 173.04976 278.93905 173.04976 278.93905C173.04976 278.93905 173.04976 262.50406 173.04976 262.50406"
     style="opacity:1;stroke-opacity:1;fill-opacity:1;stroke:none;stroke-miterlimit:4;stroke-dasharray:none;stroke-width:0.0154330902503;fill:#335065" />
</svg>
