<?xml version="1.0" encoding="UTF-8" standalone="no"?>
<!-- Created with Inkscape (http://www.inkscape.org/) -->

<svg
   xmlns:dc="http://purl.org/dc/elements/1.1/"
   xmlns:cc="http://creativecommons.org/ns#"
   xmlns:rdf="http://www.w3.org/1999/02/22-rdf-syntax-ns#"
   xmlns:svg="http://www.w3.org/2000/svg"
   xmlns="http://www.w3.org/2000/svg"
   xmlns:sodipodi="http://sodipodi.sourceforge.net/DTD/sodipodi-0.dtd"
   xmlns:inkscape="http://www.inkscape.org/namespaces/inkscape"
   width="297.16101mm"
   height="450.49731mm"
   viewBox="0 0 297.16101 450.49731"
   version="1.1"
   id="svg911"
   inkscape:version="0.92.3 (2405546, 2018-03-11)"
   sodipodi:docname="fix.svg">
  <sodipodi:namedview
     id="base"
     pagecolor="#ffffff"
     bordercolor="#666666"
     borderopacity="1.0"
     inkscape:pageopacity="0.0"
     inkscape:pageshadow="2"
     inkscape:zoom="0.41231783"
     inkscape:cx="307.74662"
     inkscape:cy="936.24687"
     inkscape:document-units="mm"
     inkscape:current-layer="layer1"
     showgrid="false"
     fit-margin-top="0"
     fit-margin-left="0"
     fit-margin-right="0"
     fit-margin-bottom="0"
     inkscape:window-width="1920"
     inkscape:window-height="1025"
     inkscape:window-x="0"
     inkscape:window-y="27"
     inkscape:window-maximized="1" />
  <defs
     id="defs905" />
  <metadata
     id="metadata908">
    <rdf:RDF>
      <cc:Work
         rdf:about="">
        <dc:format>image/svg+xml</dc:format>
        <dc:type
           rdf:resource="http://purl.org/dc/dcmitype/StillImage" />
        <dc:title></dc:title>
      </cc:Work>
    </rdf:RDF>
  </metadata>
  <g
     transform="translate(50.117038,71.406362)"
     id="layer1"
     inkscape:groupmode="layer"
     inkscape:label="Layer 1">
    <rect
       transform="matrix(1.000000,0.000000,0.000000,1.000000,0.000000,0.000000)"
       y="247.19969"
       x="18.934225"
       height="88.003716"
       width="23.136761"
       id="rect1351"
       style="opacity:1;stroke-opacity:1;fill-opacity:1;stroke:none;stroke-miterlimit:4;stroke-dasharray:none;stroke-width:0.105632691033;fill:#7dd4de" />
    <rect
       transform="matrix(1.000000,0.000000,0.000000,1.000000,0.000000,0.000000)"
       y="247.19942"
       x="64.717674"
       height="88.003662"
       width="23.118559"
       id="rect1381"
       style="opacity:1;stroke-opacity:1;fill-opacity:1;stroke:none;stroke-miterlimit:4;stroke-dasharray:none;stroke-width:0.0712188491265;fill:#7dd4de" />
    <rect
       transform="matrix(1.000000,0.000000,0.000000,1.000000,0.000000,0.000000)"
       y="313.83249"
       x="109.53177"
       height="21.370483"
       width="91.224724"
       id="rect1391"
       style="opacity:1;stroke-opacity:1;fill-opacity:1;stroke:none;stroke-miterlimit:4;stroke-dasharray:none;stroke-width:0.0991569909264;fill:#7dd4de" />
    <rect
       transform="matrix(1.000000,0.000000,0.000000,1.000000,0.000000,0.000000)"
       y="264.63568"
       x="221.95789"
       height="95.514771"
       width="21.108459"
       id="rect1397"
       style="opacity:1;stroke-opacity:1;fill-opacity:1;stroke:none;stroke-miterlimit:4;stroke-dasharray:none;stroke-width:0.0909571938979;fill:#b24236" />
    <rect
       transform="matrix(1.000000,0.000000,0.000000,1.000000,0.000000,0.000000)"
       y="-58.930553"
       x="146.29727"
       height="42.471596"
       width="22.148085"
       id="rect1439"
       style="opacity:1;stroke-opacity:1;fill-opacity:1;stroke:none;stroke-miterlimit:4;stroke-dasharray:none;stroke-width:0.100017415458;fill:#7dd4de" />
    <path
       id="path2316"
       d="M-3.5003567 -71.406362C-3.5003567 -71.406362 146.29734 -71.406362 146.29734 -71.406362C146.29734 -71.406362 146.29734 -16.458963 146.29734 -16.458963C146.29734 -16.458963 247.04396 -16.459061 247.04396 -16.459061C247.04396 -16.459061 247.04386 73.178738 247.04386 73.178738C247.04386 73.178738 66.320442 73.178738 66.320442 73.178738C66.320442 73.178738 66.320442 106.07564 66.320442 106.07564C66.320442 106.07564 43.610044 106.07564 43.610044 106.07564C43.610044 106.07564 43.610245 49.648138 43.610245 49.648138C43.610245 49.648138 223.10655 49.648338 223.10655 49.648338C223.10655 49.648338 223.10655 8.4489393 223.10655 8.4489393C223.10655 8.4489393 -3.1422567 8.4489393 -3.1422567 8.4489393C-3.1422567 8.4489393 -3.1422567 106.07574 -3.1422567 106.07574C-3.1422567 106.07574 -26.813746 106.07574 -26.813746 106.07574C-26.813746 106.07574 -26.813646 -16.459061 -26.813646 -16.459061C-26.813646 -16.459061 -3.5003567 -16.459061 -3.5003567 -16.459061C-3.5003567 -16.459061 -3.5003567 -71.406362 -3.5003567 -71.406362"
       style="stroke-linejoin:miter;stroke-opacity:1;fill-opacity:1;stroke:none;stroke-linecap:butt;stroke-width:0.0990010824548;fill:#e86b3d" />
    <path
       id="path2270"
       d="M20.811345 -48.591362C20.811345 -48.591362 122.01444 -48.591362 122.01444 -48.591362C122.01444 -48.591362 122.01444 -24.925661 122.01444 -24.925661C122.01444 -24.925661 42.865345 -24.925661 42.865345 -24.925661C42.865345 -24.925661 42.865345 -16.458963 42.865345 -16.458963C42.865345 -16.458963 20.811345 -16.458963 20.811345 -16.458963C20.811345 -16.458963 20.811345 -48.591362 20.811345 -48.591362"
       style="stroke-linejoin:miter;stroke-opacity:1;fill-opacity:1;stroke:none;stroke-linecap:butt;stroke-width:0.0990010824548;fill:#b24236" />
    <path
       id="path2272"
       d="M42.865345 -24.925661C42.865345 -24.925661 122.01444 -24.925661 122.01444 -24.925661C122.01444 -24.925661 122.01444 -16.458862 122.01444 -16.458862C122.01444 -16.458862 42.865345 -16.458963 42.865345 -16.458963C42.865345 -16.458963 42.865345 -24.925661 42.865345 -24.925661"
       style="stroke-linejoin:miter;stroke-opacity:1;fill-opacity:1;stroke:none;stroke-linecap:butt;stroke-width:0.0990010824548;fill:#335065" />
    <path
       style="stroke-linejoin:miter;stroke-opacity:1;fill-opacity:1;stroke:none;stroke-linecap:butt;stroke-width:0.0990010824548;fill:#b24236"
       d="M-3.1422567 8.4489393C-3.1422567 8.4489393 223.10655 8.4489393 223.10655 8.4489393C223.10655 8.4489393 223.10655 28.32024 223.10655 28.32024C223.10655 28.32024 21.050444 28.32024 21.050444 28.32024C21.050444 28.32024 21.050444 106.07564 21.050444 106.07564C21.050444 106.07564 -3.1422567 106.07574 -3.1422567 106.07574C-3.1422567 106.07574 -3.1422567 8.4489393 -3.1422567 8.4489393"
       id="path2278" />
    <path
       id="path2280"
       d="M21.050444 28.319938C21.050444 28.319938 223.10655 28.319938 223.10655 28.319938C223.10655 28.319938 223.10655 49.647938 223.10655 49.647938C223.10655 49.647938 21.050444 49.647938 21.050444 49.647938C21.050444 49.647938 21.050444 28.319938 21.050444 28.319938"
       style="stroke-linejoin:miter;stroke-opacity:1;fill-opacity:1;stroke:none;stroke-linecap:butt;stroke-width:0.0990010824548;fill:#335065" />
    <path
       id="path2282"
       d="M-49.984746 28.28264C-49.984746 28.28264 -26.813746 28.28264 -26.813746 28.28264C-26.813746 28.28264 -26.813646 106.07564 -26.813646 106.07564C-26.813646 106.07564 -49.984746 106.07574 -49.984746 106.07574C-49.984746 106.07574 -49.984746 28.28264 -49.984746 28.28264"
       style="stroke-linejoin:miter;stroke-opacity:1;fill-opacity:1;stroke:#000000;stroke-linecap:butt;stroke-width:0.0990010824548;fill:#335065" />
    <path
       id="path2284"
       d="M21.050444 49.647838C21.050444 49.647838 43.610245 49.647838 43.610245 49.647838C43.610245 49.647838 43.610245 106.07584 43.610245 106.07584C43.610245 106.07584 21.050444 106.07584 21.050444 106.07584C21.050444 106.07584 21.050444 49.647838 21.050444 49.647838"
       style="stroke-linejoin:miter;stroke-opacity:1;fill-opacity:1;stroke:none;stroke-linecap:butt;stroke-width:0.0990010824548;fill:#7dd4de" />
    <path
       id="path2286"
       d="M66.320342 73.178738C66.320342 73.178738 247.04386 73.178738 247.04386 73.178738C247.04386 73.178738 247.04386 96.201938 247.04386 96.201938C247.04386 96.201938 88.789742 96.201938 88.789742 96.201938C88.789742 96.201938 88.789942 106.07564 88.789942 106.07564C88.789942 106.07564 66.320342 106.07564 66.320342 106.07564C66.320342 106.07564 66.320342 73.178738 66.320342 73.178738"
       style="stroke-linejoin:miter;stroke-opacity:1;fill-opacity:1;stroke:none;stroke-linecap:butt;stroke-width:0.0990010824548;fill:#b24236" />
    <path
       id="path2288"
       d="M88.790042 96.202038C88.790042 96.202038 247.04386 96.202038 247.04386 96.202038C247.04386 96.202038 247.04386 118.55494 247.04386 118.55494C247.04386 118.55494 85.804542 118.55484 85.804542 118.55484C85.804542 118.55484 85.804542 106.07564 85.804542 106.07564C85.804542 106.07564 88.790042 106.07574 88.790042 106.07574C88.790042 106.07574 88.790042 96.202038 88.790042 96.202038"
       style="stroke-linejoin:miter;stroke-opacity:1;fill-opacity:1;stroke:none;stroke-linecap:butt;stroke-width:0.0990010824548;fill:#335065" />
    <path
       id="path2290"
       d="M-49.984746 106.07584C-49.984746 106.07584 -29.597046 106.07584 -29.597046 106.07584C-29.597046 106.07584 -29.597046 232.08975 -29.597046 232.08975C-29.597046 232.08975 -49.984746 232.08975 -49.984746 232.08975C-49.984746 232.08975 -49.984746 106.07584 -49.984746 106.07584"
       style="stroke-linejoin:miter;stroke-opacity:1;fill-opacity:1;stroke:none;stroke-linecap:butt;stroke-width:0.0990010824548;fill:#7dd4de" />
    <path
       id="path2292"
       d="M-26.813746 106.07574C-26.813746 106.07574 85.804542 106.07564 85.804542 106.07564C85.804542 106.07564 85.804542 118.55484 85.804542 118.55484C85.804542 118.55484 109.53174 118.55484 109.53174 118.55484C109.53174 118.55484 109.53194 199.16055 109.53194 199.16055C109.53194 199.16055 -5.5770557 199.16055 -5.5770557 199.16055C-5.5770557 199.16055 -5.5772567 360.15054 -5.5772567 360.15054C-5.5772567 360.15054 200.65215 360.15054 200.65215 360.15054C200.65215 360.15054 200.75646 313.83264 200.75646 313.83264C200.75646 313.83264 109.53174 313.83264 109.53174 313.83264C109.53174 313.83264 109.53174 335.20324 109.53174 335.20324C109.53174 335.20324 87.836142 335.20324 87.836142 335.20324C87.836142 335.20324 87.836142 247.19965 87.836142 247.19965C87.836142 247.19965 64.717442 247.19965 64.717442 247.19965C64.717442 247.19965 64.717442 335.20324 64.717442 335.20324C64.717442 335.20324 42.070944 335.20324 42.070944 335.20324C42.070944 335.20324 42.070944 247.19965 42.070944 247.19965C42.070944 247.19965 18.934145 247.19984 18.934145 247.19984C18.934145 247.19984 18.934145 223.51786 18.934145 223.51786C18.934145 223.51786 109.53194 223.51786 109.53194 223.51786C109.53194 223.51786 109.53174 244.79144 109.53174 244.79144C109.53174 244.79144 133.46604 244.79144 133.46604 244.79144C133.46604 244.79144 133.46604 118.55484 133.46604 118.55484C133.46604 118.55484 156.77345 118.55484 156.77345 118.55484C156.77345 118.55484 156.77324 244.79144 156.77324 244.79144C156.77324 244.79144 177.87515 244.79144 177.87515 244.79144C177.87515 244.79144 177.87515 118.55484 177.87515 118.55484C177.87515 118.55484 200.75655 118.55484 200.75655 118.55484C200.75655 118.55484 200.65215 264.63593 200.65215 264.63593C200.65215 264.63593 221.95816 264.63593 221.95816 264.63593C221.95816 264.63593 221.95816 360.15054 221.95816 360.15054C221.95816 360.15054 243.06635 360.15054 243.06635 360.15054C243.06635 360.15054 243.06635 379.09095 243.06635 379.09095C243.06635 379.09095 -29.597046 379.09095 -29.597046 379.09095C-29.597046 379.09095 -29.597046 106.07584 -29.597046 106.07584C-29.597046 106.07584 -26.813746 106.07574 -26.813746 106.07574"
       style="stroke-linejoin:miter;stroke-opacity:1;fill-opacity:1;stroke:none;stroke-linecap:butt;stroke-width:0.0990010824548;fill:#f0a116" />
    <path
       id="path2294"
       d="M-5.5770557 129.25434C-5.5770557 129.25434 85.804642 129.25434 85.804642 129.25434C85.804642 129.25434 85.804642 152.96584 85.804642 152.96584C85.804642 152.96584 -5.5770557 152.96584 -5.5770557 152.96584C-5.5770557 152.96584 -5.5770557 129.25434 -5.5770557 129.25434"
       style="stroke-linejoin:miter;stroke-opacity:1;fill-opacity:1;stroke:none;stroke-linecap:butt;stroke-width:0.0990010824548;fill:#e86b3d" />
    <path
       id="path2296"
       d="M-5.5770557 152.96584C-5.5770557 152.96584 85.804642 152.96584 85.804642 152.96584C85.804642 152.96584 85.804642 176.18484 85.804642 176.18484C85.804642 176.18484 -5.5770557 176.18484 -5.5770557 176.18484C-5.5770557 176.18484 -5.5770557 152.96584 -5.5770557 152.96584"
       style="stroke-linejoin:miter;stroke-opacity:1;fill-opacity:1;stroke:none;stroke-linecap:butt;stroke-width:0.0990010824548;fill:#7dd4de" />
    <path
       id="path2298"
       d="M109.53174 267.76354C109.53174 267.76354 200.75646 267.76354 200.75646 267.76354C200.75646 267.76354 200.75646 290.20786 200.75646 290.20786C200.75646 290.20786 109.53174 290.20786 109.53174 290.20786C109.53174 290.20786 109.53174 267.76354 109.53174 267.76354"
       style="stroke-linejoin:miter;stroke-opacity:1;fill-opacity:1;stroke:none;stroke-linecap:butt;stroke-width:0.0990010824548;fill:#7dd4de" />
    <path
       id="path2300"
       d="M-5.5770557 199.16084C-5.5770557 199.16084 18.934344 199.16084 18.934344 199.16084C18.934344 199.16084 18.934145 335.20353 18.934145 335.20353C18.934145 335.20353 200.75646 335.20353 200.75646 335.20353C200.75646 335.20353 200.65215 360.15083 200.65215 360.15083C200.65215 360.15083 -5.5770557 360.15083 -5.5770557 360.15083C-5.5770557 360.15083 -5.5770557 199.16084 -5.5770557 199.16084"
       style="stroke-linejoin:miter;stroke-opacity:1;fill-opacity:1;stroke:none;stroke-linecap:butt;stroke-width:0.0990010824548;fill:#e86b3d" />
    <path
       id="path2302"
       d="M-49.984746 308.81905C-49.984746 308.81905 -29.597046 308.81905 -29.597046 308.81905C-29.597046 308.81905 -29.597046 379.09095 -29.597046 379.09095C-29.597046 379.09095 -49.984746 379.09095 -49.984746 379.09095C-49.984746 379.09095 -49.984746 308.81905 -49.984746 308.81905"
       style="stroke-linejoin:miter;stroke-opacity:1;fill-opacity:1;stroke:none;stroke-linecap:butt;stroke-width:0.0990010824548;fill:#b24236" />
    <path
       id="path2306"
       d="M109.53184 118.55484C109.53184 118.55484 133.46604 118.55484 133.46604 118.55484C133.46604 118.55484 133.46604 244.79144 133.46604 244.79144C133.46604 244.79144 109.53174 244.79144 109.53174 244.79144C109.53174 244.79144 109.53194 223.51775 109.53194 223.51775C109.53194 223.51775 18.934145 223.51786 18.934145 223.51786C18.934145 223.51786 18.934344 199.16084 18.934344 199.16084C18.934344 199.16084 109.53194 199.16084 109.53194 199.16084C109.53194 199.16084 109.53184 118.55484 109.53184 118.55484"
       style="stroke-linejoin:miter;stroke-opacity:1;fill-opacity:1;stroke:none;stroke-linecap:butt;stroke-width:0.0990010824548;fill:#7dd4de" />
    <path
       id="path2308"
       d="M156.77324 118.55484C156.77324 118.55484 177.87515 118.55484 177.87515 118.55484C177.87515 118.55484 177.87515 244.79115 177.87515 244.79115C177.87515 244.79115 156.77324 244.79115 156.77324 244.79115C156.77324 244.79115 156.77324 118.55484 156.77324 118.55484"
       style="stroke-linejoin:miter;stroke-opacity:1;fill-opacity:1;stroke:none;stroke-linecap:butt;stroke-width:0.0990010824548;fill:#7dd4de" />
    <path
       id="path2310"
       d="M200.75665 118.55474C200.75665 118.55474 224.16475 118.55474 224.16475 118.55474C224.16475 118.55474 224.16475 241.15315 224.16475 241.15315C224.16475 241.15315 200.75637 241.15315 200.75637 241.15315C200.75637 241.15315 200.75665 118.55474 200.75665 118.55474"
       style="stroke-linejoin:miter;stroke-opacity:1;fill-opacity:1;stroke:none;stroke-linecap:butt;stroke-width:0.0990010824548;fill:#7dd4de" />
    <path
       id="path2312"
       d="M224.16475 118.55474C224.16475 118.55474 247.04335 118.55474 247.04335 118.55474C247.04335 118.55474 247.04335 241.15334 247.04335 241.15334C247.04335 241.15334 224.16446 241.15334 224.16446 241.15334C224.16446 241.15334 224.16475 118.55474 224.16475 118.55474"
       style="stroke-linejoin:miter;stroke-opacity:1;fill-opacity:1;stroke:none;stroke-linecap:butt;stroke-width:0.0990010824548;fill:#f0a116" />
    <path
       id="path2314"
       d="M196.77936 241.15305C196.77936 241.15305 243.06635 241.15323 243.06635 241.15323C243.06635 241.15323 243.06635 264.63575 243.06635 264.63575C243.06635 264.63575 196.67455 264.63575 196.67455 264.63575C196.67455 264.63575 196.77936 241.15305 196.77936 241.15305"
       style="stroke-linejoin:miter;stroke-opacity:1;fill-opacity:1;stroke:none;stroke-linecap:butt;stroke-width:0.0990010824548;fill:#335065" />
  </g>
</svg>
