<?xml version="1.0" encoding="UTF-8" standalone="no"?>
<svg
   xmlns:dc="http://purl.org/dc/elements/1.1/"
   xmlns:cc="http://creativecommons.org/ns#"
   xmlns:rdf="http://www.w3.org/1999/02/22-rdf-syntax-ns#"
   xmlns:svg="http://www.w3.org/2000/svg"
   xmlns="http://www.w3.org/2000/svg"
   xmlns:sodipodi="http://sodipodi.sourceforge.net/DTD/sodipodi-0.dtd"
   xmlns:inkscape="http://www.inkscape.org/namespaces/inkscape"
   inkscape:version="0.92.3 (2405546, 2018-03-11)"
   sodipodi:docname="poly.svg"
   width="202.06781mm"
   height="306.46152mm"
   viewBox="0 0 202.06781 306.46152"
   version="1.1"
   id="svg1620">
  <sodipodi:namedview
     inkscape:current-layer="svg1620"
     inkscape:window-maximized="1"
     inkscape:window-y="27"
     inkscape:window-x="0"
     inkscape:cy="489.65004"
     inkscape:cx="791.31863"
     inkscape:zoom="0.48111892"
     showgrid="false"
     id="namedview64"
     inkscape:window-height="1025"
     inkscape:window-width="1920"
     inkscape:pageshadow="2"
     inkscape:pageopacity="0"
     guidetolerance="10"
     gridtolerance="10"
     objecttolerance="10"
     borderopacity="1"
     bordercolor="#666666"
     pagecolor="#ffffff" />
  <defs
     id="defs1614" />
  <metadata
     id="metadata1617">
    <rdf:RDF>
      <cc:Work
         rdf:about="">
        <dc:format>image/svg+xml</dc:format>
        <dc:type
           rdf:resource="http://purl.org/dc/dcmitype/StillImage" />
        <dc:title />
      </cc:Work>
    </rdf:RDF>
  </metadata>
  <path
     style="opacity:1;stroke-opacity:1;fill-opacity:1;stroke:none;stroke-miterlimit:4;stroke-dasharray:none;stroke-width:0.0546340048404;fill:#f0a116"
     d="M0.0 0.0C0.0 0.0 0.0 14.9840979862 0.0 14.9840979862C0.0 14.9840979862 186.726584231 14.9840979862 186.726584231 14.9840979862C186.726584231 14.9840979862 186.726584231 75.1633694906 186.726584231 75.1633694906C186.726584231 75.1633694906 0.0 75.1633694906 0.0 75.1633694906C0.0 75.1633694906 0.0 89.7469750985 0.0 89.7469750985C0.0 89.7469750985 0.0 169.007253412 0.0 169.007253412C0.0 169.007253412 14.8843625062 169.007253412 14.8843625062 169.007253412C14.8843625062 169.007253412 14.8843625062 89.7469750985 14.8843625062 89.7469750985C14.8843625062 89.7469750985 202.067765996 89.7469750985 202.067765996 89.7469750985C202.067765996 89.7469750985 202.067765996 75.1633694906 202.067765996 75.1633694906C202.067765996 75.1633694906 202.067765996 14.9840979862 202.067765996 14.9840979862C202.067765996 14.9840979862 202.067765996 0.0 202.067765996 0.0C202.067765996 0.0 0.0 0.0 0.0 0.0C0.0 0.0 0.0 0.0 0.0 0.0"
     id="rect1336" />
  <rect
     transform="matrix(1.000000,0.000000,0.000000,1.000000,0.000000,0.000000)"
     style="opacity:1;stroke-opacity:1;fill-opacity:1;stroke:none;stroke-miterlimit:4;stroke-dasharray:none;stroke-width:0.0707010363333;fill:#335065"
     id="rect1338"
     width="139.48322"
     height="15.80659"
     x="-3.8409425e-08"
     y="14.983955" />
  <path
     style="opacity:1;stroke-opacity:1;fill-opacity:1;stroke:none;stroke-miterlimit:4;stroke-dasharray:none;stroke-width:0.0675105840866;fill:#b24236"
     d="M139.482957889 14.9840979862C139.482957889 14.9840979862 139.482957889 30.7903690913 139.482957889 30.7903690913C139.482957889 30.7903690913 0.0 30.7903690913 0.0 30.7903690913C0.0 30.7903690913 0.0 43.0139125623 0.0 43.0139125623C0.0 43.0139125623 154.819488279 43.0139125623 154.819488279 43.0139125623C154.819488279 43.0139125623 154.819488279 30.7903690913 154.819488279 30.7903690913C154.819488279 30.7903690913 154.819488279 14.9840979862 154.819488279 14.9840979862C154.819488279 14.9840979862 139.482957889 14.9840979862 139.482957889 14.9840979862C139.482957889 14.9840979862 139.482957889 14.9840979862 139.482957889 14.9840979862"
     id="rect1340" />
  <path
     style="opacity:1;stroke-opacity:1;fill-opacity:1;stroke:none;stroke-miterlimit:4;stroke-dasharray:none;stroke-width:0.0688155906645;fill:#d23d41"
     d="M154.819488279 14.9840979862C154.819488279 14.9840979862 154.819488279 43.0139125623 154.819488279 43.0139125623C154.819488279 43.0139125623 170.028378379 43.0139125623 170.028378379 43.0139125623C170.028378379 43.0139125623 170.028378379 14.9840979862 170.028378379 14.9840979862C170.028378379 14.9840979862 154.819488279 14.9840979862 154.819488279 14.9840979862C154.819488279 14.9840979862 154.819488279 14.9840979862 154.819488279 14.9840979862M0.0 43.0144284998C0.0 43.0144284998 0.0 58.4088364933 0.0 58.4088364933C0.0 58.4088364933 170.028378379 58.4088364933 170.028378379 58.4088364933C170.028378379 58.4088364933 170.028378379 43.0144284998 170.028378379 43.0144284998C170.028378379 43.0144284998 0.0 43.0144284998 0.0 43.0144284998C0.0 43.0144284998 0.0 43.0144284998 0.0 43.0144284998"
     id="rect1342" />
  <path
     style="opacity:1;stroke-opacity:1;fill-opacity:1;stroke:none;stroke-miterlimit:4;stroke-dasharray:none;stroke-width:0.0668035351592;fill:#e86b3d"
     d="M170.028378379 14.9840979862C170.028378379 14.9840979862 170.028378379 58.4083205558 170.028378379 58.4083205558C170.028378379 58.4083205558 0.0 58.4083205558 0.0 58.4083205558C0.0 58.4083205558 0.0 75.1633694906 0.0 75.1633694906C0.0 75.1633694906 186.726584231 75.1633694906 186.726584231 75.1633694906C186.726584231 75.1633694906 186.726584231 58.4083205558 186.726584231 58.4083205558C186.726584231 58.4083205558 186.726584231 14.9840979862 186.726584231 14.9840979862C186.726584231 14.9840979862 170.028378379 14.9840979862 170.028378379 14.9840979862C170.028378379 14.9840979862 170.028378379 14.9840979862 170.028378379 14.9840979862"
     id="rect1344" />
  <path
     style="opacity:1;stroke-opacity:1;fill-opacity:1;stroke:none;stroke-miterlimit:4;stroke-dasharray:none;stroke-width:0.0683059043625;fill:#b24236"
     d="M14.8843625062 89.7469750985C14.8843625062 89.7469750985 14.8843625062 105.710859022 14.8843625062 105.710859022C14.8843625062 105.710859022 14.8843625062 138.917617396 14.8843625062 138.917617396C14.8843625062 138.917617396 31.1443524826 138.917617396 31.1443524826 138.917617396C31.1443524826 138.917617396 31.1443524826 105.710859022 31.1443524826 105.710859022C31.1443524826 105.710859022 156.4540153 105.710859022 156.4540153 105.710859022C156.4540153 105.710859022 156.4540153 89.7469750985 156.4540153 89.7469750985C156.4540153 89.7469750985 14.8843625062 89.7469750985 14.8843625062 89.7469750985C14.8843625062 89.7469750985 14.8843625062 89.7469750985 14.8843625062 89.7469750985"
     id="rect1358" />
  <rect
     transform="matrix(1.000000,0.000000,0.000000,1.000000,0.000000,0.000000)"
     style="opacity:1;stroke-opacity:1;fill-opacity:1;stroke:none;stroke-miterlimit:4;stroke-dasharray:none;stroke-width:0.0674538804896;fill:#7dd4de"
     id="rect1360"
     width="45.613724"
     height="15.963758"
     x="156.45398"
     y="89.747116" />
  <path
     style="opacity:1;stroke-opacity:1;fill-opacity:1;stroke:none;stroke-miterlimit:4;stroke-dasharray:none;stroke-width:0.0682960557344;fill:#7dd4de"
     d="M31.1443524826 105.710859022C31.1443524826 105.710859022 31.1443524826 121.471654074 31.1443524826 121.471654074C31.1443524826 121.471654074 31.1443524826 137.539924059 31.1443524826 137.539924059C31.1443524826 137.539924059 46.3403229787 137.539924059 46.3403229787 137.539924059C46.3403229787 137.539924059 46.3403229787 121.471654074 46.3403229787 121.471654074C46.3403229787 121.471654074 140.830160642 121.471654074 140.830160642 121.471654074C140.830160642 121.471654074 140.830160642 246.68829733 140.830160642 246.68829733C140.830160642 246.68829733 109.228473228 246.68829733 109.228473228 246.68829733C109.228473228 246.68829733 109.228473228 262.247556613 109.228473228 262.247556613C109.228473228 262.247556613 156.4540153 262.247556613 156.4540153 262.247556613C156.4540153 262.247556613 156.4540153 246.68829733 156.4540153 246.68829733C156.4540153 246.68829733 156.4540153 121.471654074 156.4540153 121.471654074C156.4540153 121.471654074 156.4540153 105.710859022 156.4540153 105.710859022C156.4540153 105.710859022 31.1443524826 105.710859022 31.1443524826 105.710859022C31.1443524826 105.710859022 31.1443524826 105.710859022 31.1443524826 105.710859022"
     id="rect1364" />
  <rect
     transform="matrix(1.000000,0.000000,0.000000,1.000000,0.000000,0.000000)"
     style="opacity:1;stroke-opacity:1;fill-opacity:1;stroke:none;stroke-miterlimit:4;stroke-dasharray:none;stroke-width:0.0674538804896;fill:#e7a2a1"
     id="rect1366"
     width="45.613724"
     height="15.760724"
     x="156.45398"
     y="105.71096" />
  <path
     style="opacity:1;stroke-opacity:1;fill-opacity:1;stroke:none;stroke-miterlimit:4;stroke-dasharray:none;stroke-width:0.0715018871274;fill:#e7a2a1"
     d="M14.8843625062 138.917617396C14.8843625062 138.917617396 14.8843625062 183.993935849 14.8843625062 183.993935849C14.8843625062 183.993935849 0.0 183.993935849 0.0 183.993935849C0.0 183.993935849 0.0 199.648275797 0.0 199.648275797C0.0 199.648275797 14.8843625062 199.648275797 14.8843625062 199.648275797C14.8843625062 199.648275797 31.1443524826 199.648275797 31.1443524826 199.648275797C31.1443524826 199.648275797 31.1443524826 138.917617396 31.1443524826 138.917617396C31.1443524826 138.917617396 14.8843625062 138.917617396 14.8843625062 138.917617396C14.8843625062 138.917617396 14.8843625062 138.917617396 14.8843625062 138.917617396"
     id="rect1370" />
  <rect
     transform="matrix(1.000000,0.000000,0.000000,1.000000,0.000000,0.000000)"
     style="opacity:1;stroke-opacity:1;fill-opacity:1;stroke:none;stroke-miterlimit:4;stroke-dasharray:none;stroke-width:0.0471743817426;fill:#b24236"
     id="rect1372"
     width="14.884451"
     height="14.986485"
     x="-3.8409425e-08"
     y="169.00763" />
  <rect
     transform="matrix(1.000000,0.000000,0.000000,1.000000,0.000000,0.000000)"
     style="opacity:1;stroke-opacity:1;fill-opacity:1;stroke:none;stroke-miterlimit:4;stroke-dasharray:none;stroke-width:0.0679415121388;fill:#7dd4de"
     id="rect1376"
     width="31.144312"
     height="15.67116"
     x="-3.8409425e-08"
     y="199.64833" />
  <rect
     transform="matrix(1.000000,0.000000,0.000000,1.000000,0.000000,0.000000)"
     style="opacity:1;stroke-opacity:1;fill-opacity:1;stroke:none;stroke-miterlimit:4;stroke-dasharray:none;stroke-width:0.0750734482031;fill:#f0a116"
     id="rect1378"
     width="15.196307"
     height="93.103142"
     x="31.14415"
     y="137.53999" />
  <rect
     transform="matrix(1.000000,0.000000,0.000000,1.000000,0.000000,0.000000)"
     style="opacity:1;stroke-opacity:1;fill-opacity:1;stroke:none;stroke-miterlimit:4;stroke-dasharray:none;stroke-width:0.0674538804896;fill:#f0a116"
     id="rect1380"
     width="31.144314"
     height="15.323677"
     x="-3.8409425e-08"
     y="215.31953" />
  <path
     style="opacity:1;stroke-opacity:1;fill-opacity:1;stroke:none;stroke-miterlimit:4;stroke-dasharray:none;stroke-width:0.0380339313817;fill:#e7a2a1"
     d="M46.3408389162 121.471654074C46.3408389162 121.471654074 46.3408389162 154.732673196 46.3408389162 154.732673196C46.3408389162 154.732673196 62.6499220649 154.732673196 62.6499220649 154.732673196C62.6499220649 154.732673196 62.6499220649 137.584366121 62.6499220649 137.584366121C62.6499220649 137.584366121 124.528832431 137.584366121 124.528832431 137.584366121C124.528832431 137.584366121 124.528832431 246.687781392 124.528832431 246.687781392C124.528832431 246.687781392 140.830160642 246.687781392 140.830160642 246.687781392C140.830160642 246.687781392 140.830160642 137.584366121 140.830160642 137.584366121C140.830160642 137.584366121 140.830160642 121.471654074 140.830160642 121.471654074C140.830160642 121.471654074 62.6499220649 121.471654074 62.6499220649 121.471654074C62.6499220649 121.471654074 46.3408389162 121.471654074 46.3408389162 121.471654074C46.3408389162 121.471654074 46.3408389162 121.471654074 46.3408389162 121.471654074"
     id="rect1382" />
  <rect
     transform="matrix(1.000000,0.000000,0.000000,1.000000,0.000000,0.000000)"
     style="opacity:1;stroke-opacity:1;fill-opacity:1;stroke:none;stroke-miterlimit:4;stroke-dasharray:none;stroke-width:0.0832050214775;fill:#7dd4de"
     id="rect1386"
     width="16.309225"
     height="75.910347"
     x="46.340687"
     y="154.73283" />
  <path
     style="opacity:1;stroke-opacity:1;fill-opacity:1;stroke:none;stroke-miterlimit:4;stroke-dasharray:none;stroke-width:0.072876129125;fill:#f0a116"
     d="M62.6499220649 137.584366121C62.6499220649 137.584366121 62.6499220649 230.643284219 62.6499220649 230.643284219C62.6499220649 230.643284219 78.2019449939 230.643284219 78.2019449939 230.643284219C78.2019449939 230.643284219 78.2019449939 151.984520231 78.2019449939 151.984520231C78.2019449939 151.984520231 124.528832431 151.984520231 124.528832431 151.984520231C124.528832431 151.984520231 124.528832431 137.584366121 124.528832431 137.584366121C124.528832431 137.584366121 78.2019449939 137.584366121 78.2019449939 137.584366121C78.2019449939 137.584366121 62.6499220649 137.584366121 62.6499220649 137.584366121C62.6499220649 137.584366121 62.6499220649 137.584366121 62.6499220649 137.584366121M109.228473228 151.985036169C109.228473228 151.985036169 109.228473228 246.68829733 109.228473228 246.68829733C109.228473228 246.68829733 124.528832431 246.68829733 124.528832431 246.68829733C124.528832431 246.68829733 140.830160642 246.68829733 140.830160642 246.68829733C140.830160642 246.68829733 140.830160642 230.428826201 140.830160642 230.428826201C140.830160642 230.428826201 124.528832431 230.428826201 124.528832431 230.428826201C124.528832431 230.428826201 124.528832431 151.985036169 124.528832431 151.985036169C124.528832431 151.985036169 109.228473228 151.985036169 109.228473228 151.985036169C109.228473228 151.985036169 109.228473228 151.985036169 109.228473228 151.985036169"
     id="rect1388" />
  <path
     style="opacity:1;stroke-opacity:1;fill-opacity:1;stroke:none;stroke-miterlimit:4;stroke-dasharray:none;stroke-width:0.0794980820982;fill:#b24236"
     d="M156.4540153 133.566522734C156.4540153 133.566522734 156.4540153 150.107632234 156.4540153 150.107632234C156.4540153 150.107632234 156.4540153 262.247556613 156.4540153 262.247556613C156.4540153 262.247556613 109.228473228 262.247556613 109.228473228 262.247556613C109.228473228 262.247556613 109.228473228 151.985036169 109.228473228 151.985036169C109.228473228 151.985036169 93.8847064839 151.985036169 93.8847064839 151.985036169C93.8847064839 151.985036169 93.8847064839 277.433719005 93.8847064839 277.433719005C93.8847064839 277.433719005 109.228473228 277.433719005 109.228473228 277.433719005C109.228473228 277.433719005 109.228473228 277.434221713 109.228473228 277.434221713C109.228473228 277.434221713 156.4540153 277.434221713 156.4540153 277.434221713C156.4540153 277.434221713 156.4540153 292.622442563 156.4540153 292.622442563C156.4540153 292.622442563 78.2019449939 292.622442563 78.2019449939 292.622442563C78.2019449939 292.622442563 78.2019449939 245.704896655 78.2019449939 245.704896655C78.2019449939 245.704896655 78.2019449939 230.643284219 78.2019449939 230.643284219C78.2019449939 230.643284219 0.0 230.643284219 0.0 230.643284219C0.0 230.643284219 0.0 245.704896655 0.0 245.704896655C0.0 245.704896655 14.813565828 245.704896655 14.813565828 245.704896655C14.813565828 245.704896655 14.813565828 306.461394264 14.813565828 306.461394264C14.813565828 306.461394264 30.4679081578 306.461394264 30.4679081578 306.461394264C30.4679081578 306.461394264 30.4679081578 245.704896655 30.4679081578 245.704896655C30.4679081578 245.704896655 62.2856040486 245.704896655 62.2856040486 245.704896655C62.2856040486 245.704896655 62.2856040486 292.622442563 62.2856040486 292.622442563C62.2856040486 292.622442563 62.2856040486 306.461394264 62.2856040486 306.461394264C62.2856040486 306.461394264 156.4540153 306.461394264 156.4540153 306.461394264C156.4540153 306.461394264 173.049901487 306.461394264 173.049901487 306.461394264C173.049901487 306.461394264 173.049901487 150.107632234 173.049901487 150.107632234C173.049901487 150.107632234 202.067765996 150.107632234 202.067765996 150.107632234C202.067765996 150.107632234 202.067765996 133.566522734 202.067765996 133.566522734C202.067765996 133.566522734 156.4540153 133.566522734 156.4540153 133.566522734C156.4540153 133.566522734 156.4540153 133.566522734 156.4540153 133.566522734"
     id="rect1394" />
  <path
     style="opacity:1;stroke-opacity:1;fill-opacity:1;stroke:none;stroke-miterlimit:4;stroke-dasharray:none;stroke-width:0.0687207337638;fill:#7dd4de"
     d="M78.2019449939 151.985036169C78.2019449939 151.985036169 78.2019449939 292.622442563 78.2019449939 292.622442563C78.2019449939 292.622442563 93.8847064839 292.622442563 93.8847064839 292.622442563C93.8847064839 292.622442563 156.4540153 292.622442563 156.4540153 292.622442563C156.4540153 292.622442563 156.4540153 277.434221713 156.4540153 277.434221713C156.4540153 277.434221713 93.8847064839 277.434221713 93.8847064839 277.434221713C93.8847064839 277.434221713 93.8847064839 151.985036169 93.8847064839 151.985036169C93.8847064839 151.985036169 78.2019449939 151.985036169 78.2019449939 151.985036169C78.2019449939 151.985036169 78.2019449939 151.985036169 78.2019449939 151.985036169"
     id="rect1396" />
  <rect
     transform="matrix(1.000000,0.000000,0.000000,1.000000,0.000000,0.000000)"
     style="opacity:1;stroke-opacity:1;fill-opacity:1;stroke:none;stroke-miterlimit:4;stroke-dasharray:none;stroke-width:0.0504383793083;fill:#f0a116"
     id="rect1412"
     width="45.613724"
     height="12.094799"
     x="156.45398"
     y="121.47168" />
  <rect
     transform="matrix(1.000000,0.000000,0.000000,1.000000,0.000000,0.000000)"
     style="opacity:1;stroke-opacity:1;fill-opacity:1;stroke:none;stroke-miterlimit:4;stroke-dasharray:none;stroke-width:0.0187797997166;fill:#f0a116"
     id="rect1422"
     width="14.813709"
     height="15.290821"
     x="-3.8409425e-08"
     y="245.7048" />
  <rect
     transform="matrix(1.000000,0.000000,0.000000,1.000000,0.000000,0.000000)"
     style="opacity:1;stroke-opacity:1;fill-opacity:1;stroke:none;stroke-miterlimit:4;stroke-dasharray:none;stroke-width:0.0552232767924;fill:#f0a116"
     id="rect1424"
     width="31.81772"
     height="15.290792"
     x="30.468025"
     y="245.7048" />
  <path
     style="opacity:1;stroke-opacity:1;fill-opacity:1;stroke:none;stroke-miterlimit:4;stroke-dasharray:none;stroke-width:0.0476585605689;fill:#e7a2a1"
     d="M30.4679081578 260.995434524C30.4679081578 260.995434524 30.4679081578 276.783611305 30.4679081578 276.783611305C30.4679081578 276.783611305 46.3971687071 276.783611305 46.3971687071 276.783611305C46.3971687071 276.783611305 46.3971687071 306.461394264 46.3971687071 306.461394264C46.3971687071 306.461394264 62.2856040486 306.461394264 62.2856040486 306.461394264C62.2856040486 306.461394264 62.2856040486 276.783611305 62.2856040486 276.783611305C62.2856040486 276.783611305 62.2856040486 260.995434524 62.2856040486 260.995434524C62.2856040486 260.995434524 30.4679081578 260.995434524 30.4679081578 260.995434524C30.4679081578 260.995434524 30.4679081578 260.995434524 30.4679081578 260.995434524"
     id="rect1428" />
  <rect
     transform="matrix(1.000000,0.000000,0.000000,1.000000,0.000000,0.000000)"
     style="opacity:1;stroke-opacity:1;fill-opacity:1;stroke:none;stroke-miterlimit:4;stroke-dasharray:none;stroke-width:0.0674538804896;fill:#7dd4de"
     id="rect1432"
     width="15.929027"
     height="29.677931"
     x="30.468025"
     y="276.78354" />
  <rect
     transform="matrix(1.000000,0.000000,0.000000,1.000000,0.000000,0.000000)"
     style="opacity:1;stroke-opacity:1;fill-opacity:1;stroke:none;stroke-miterlimit:4;stroke-dasharray:none;stroke-width:0.0399365534916;fill:#e7a2a1"
     id="rect1434"
     width="14.81371"
     height="15.937237"
     x="-3.8409425e-08"
     y="260.99551" />
  <path
     style="opacity:1;stroke-opacity:1;fill-opacity:1;stroke:none;stroke-miterlimit:4;stroke-dasharray:none;stroke-width:0.0402164439872;fill:#f0a116"
     d="M173.049901487 150.107632234C173.049901487 150.107632234 173.049901487 262.503869068 173.049901487 262.503869068C173.049901487 262.503869068 187.398377181 262.503869068 187.398377181 262.503869068C187.398377181 262.503869068 202.067765996 262.503869068 202.067765996 262.503869068C202.067765996 262.503869068 202.067765996 247.630359505 202.067765996 247.630359505C202.067765996 247.630359505 187.398377181 247.630359505 187.398377181 247.630359505C187.398377181 247.630359505 187.398377181 165.445197145 187.398377181 165.445197145C187.398377181 165.445197145 202.067765996 165.445197145 202.067765996 165.445197145C202.067765996 165.445197145 202.067765996 150.107632234 202.067765996 150.107632234C202.067765996 150.107632234 187.398377181 150.107632234 187.398377181 150.107632234C187.398377181 150.107632234 173.049901487 150.107632234 173.049901487 150.107632234C173.049901487 150.107632234 173.049901487 150.107632234 173.049901487 150.107632234"
     id="rect1436" />
  <rect
     transform="matrix(1.000000,0.000000,0.000000,1.000000,0.000000,0.000000)"
     style="opacity:1;stroke-opacity:1;fill-opacity:1;stroke:none;stroke-miterlimit:4;stroke-dasharray:none;stroke-width:0.0700196219824;fill:#335065"
     id="rect1440"
     width="14.669107"
     height="33.527344"
     x="187.39862"
     y="165.44516" />
  <rect
     transform="matrix(1.000000,0.000000,0.000000,1.000000,0.000000,0.000000)"
     style="opacity:1;stroke-opacity:1;fill-opacity:1;stroke:none;stroke-miterlimit:4;stroke-dasharray:none;stroke-width:0.089703045004;fill:#b24236"
     id="rect1442"
     width="14.669107"
     height="15.073105"
     x="187.39862"
     y="198.97253" />
  <rect
     transform="matrix(1.000000,0.000000,0.000000,1.000000,0.000000,0.000000)"
     style="opacity:1;stroke-opacity:1;fill-opacity:1;stroke:none;stroke-miterlimit:4;stroke-dasharray:none;stroke-width:0.0670153633579;fill:#d23d41"
     id="rect1444"
     width="14.669106"
     height="17.095366"
     x="187.39862"
     y="214.04568" />
  <rect
     transform="matrix(1.000000,0.000000,0.000000,1.000000,0.000000,0.000000)"
     style="opacity:1;stroke-opacity:1;fill-opacity:1;stroke:none;stroke-miterlimit:4;stroke-dasharray:none;stroke-width:0.072450764403;fill:#e86b3d"
     id="rect1446"
     width="14.669107"
     height="16.48938"
     x="187.39862"
     y="231.14104" />
  <rect
     transform="matrix(1.000000,0.000000,0.000000,1.000000,0.000000,0.000000)"
     style="opacity:1;stroke-opacity:1;fill-opacity:1;stroke:none;stroke-miterlimit:4;stroke-dasharray:none;stroke-width:0.0412453921452;fill:#335065"
     id="rect1450"
     width="29.0179"
     height="16.43499"
     x="173.04976"
     y="262.50406" />
</svg>
